<?xml version="1.0" encoding="utf-8"?>
<!-- Generator: Adobe Illustrator 27.0.0, SVG Export Plug-In . SVG Version: 6.00 Build 0)  -->
<svg version="1.1" id="Layer_1" xmlns="http://www.w3.org/2000/svg" xmlns:xlink="http://www.w3.org/1999/xlink" x="0px" y="0px"
	 viewBox="0 0 40 40" style="enable-background:new 0 0 40 40;" xml:space="preserve">
<style type="text/css">
	.st0{fill:#454545;}
</style>
<g>
	<path class="st0" d="M13.15,38.55c-0.8,0-1.47-0.27-2-0.8c-0.53-0.53-0.8-1.2-0.8-2c0-0.8,0.27-1.47,0.8-2c0.53-0.53,1.2-0.8,2-0.8
		c0.77,0,1.43,0.27,1.97,0.8s0.83,1.2,0.83,2c0,0.8-0.27,1.47-0.8,2S13.95,38.55,13.15,38.55z M31.85,38.55
		c-0.77,0-1.42-0.27-1.95-0.8c-0.53-0.53-0.8-1.2-0.8-2c0-0.8,0.27-1.47,0.8-2c0.53-0.53,1.18-0.8,1.95-0.8
		c0.8,0,1.48,0.27,2.03,0.8s0.83,1.2,0.83,2c0,0.8-0.28,1.47-0.83,2S32.65,38.55,31.85,38.55z M9.1,5.4h26
		c0.87,0,1.51,0.36,1.92,1.07c0.42,0.72,0.44,1.43,0.08,2.13l-5.55,10.15c-0.3,0.47-0.68,0.84-1.15,1.12
		c-0.47,0.28-0.95,0.42-1.45,0.42h-14.4l-2.7,5c-0.2,0.33-0.21,0.67-0.02,1.02c0.18,0.35,0.47,0.52,0.88,0.52h22v1.5H12.9
		c-1.1,0-1.9-0.4-2.4-1.2c-0.5-0.8-0.5-1.65,0-2.55l3.25-5.85l-7.5-15.8h-3.6v-1.5H7.2L9.1,5.4z"/>
</g>
</svg>
